<svg xmlns="http://www.w3.org/2000/svg" xmlns:xlink="http://www.w3.org/1999/xlink" width="183.921" height="55.246" viewBox="0 0 183.921 55.246">
  <defs>
    <clipPath id="clip-path">
      <rect id="Rectangle_22945" data-name="Rectangle 22945" width="183.921" height="55.246" fill="none"/>
    </clipPath>
  </defs>
  <g id="Group_1066" data-name="Group 1066" clip-path="url(#clip-path)">
    <path id="Path_33103" data-name="Path 33103" d="M312.478,60.56a5.207,5.207,0,0,1-5.214-5.2V43.476a5.205,5.205,0,1,1,10.411,0v2.486h-3.406V43.406a1.9,1.9,0,0,0-1.895-1.895,1.8,1.8,0,0,0-1.33.556,1.842,1.842,0,0,0-.548,1.339V55.329a1.87,1.87,0,0,0,1.877,1.877,1.845,1.845,0,0,0,1.338-.546,1.79,1.79,0,0,0,.556-1.326V51.053h-1.825v-3.3h5.231v7.613a5.192,5.192,0,0,1-5.2,5.2" transform="translate(-200.762 -25)" fill="#44b2e5"/>
    <path id="Path_33104" data-name="Path 33104" d="M345.521,60.708V38.915h9.35v3.3h-6.065V48.16h4.432v3.3h-4.432v5.944h6.065v3.3Z" transform="translate(-225.758 -25.426)" fill="#44b2e5"/>
    <path id="Path_33105" data-name="Path 33105" d="M382.7,38.915l4.359,14.647V38.915h3.285V60.708h-3.528L382.3,46.753V60.708h-3.285V38.915Z" transform="translate(-247.642 -25.427)" fill="#44b2e5"/>
    <rect id="Rectangle_22944" data-name="Rectangle 22944" width="3.285" height="21.776" transform="translate(145.64 13.505)" fill="#44b2e5"/>
    <path id="Path_33106" data-name="Path 33106" d="M443.274,60.983a5.162,5.162,0,0,1-5.2-5.179V38.963h3.215V55.769a1.794,1.794,0,0,0,.557,1.33,1.837,1.837,0,0,0,1.338.548,1.87,1.87,0,0,0,1.877-1.877V38.963h3.423V55.8a4.951,4.951,0,0,1-1.529,3.684,5.082,5.082,0,0,1-3.685,1.494" transform="translate(-286.234 -25.458)" fill="#44b2e5"/>
    <path id="Path_33107" data-name="Path 33107" d="M486.8,54.794a6.132,6.132,0,0,1-1.182,3.893,4.256,4.256,0,0,1-2.259,1.547,6.148,6.148,0,0,1-1.825.243,5.164,5.164,0,0,1-3.2-.956,5.348,5.348,0,0,1-1.678-2.129,8.6,8.6,0,0,1-.721-3.085l3.129-.226a4.759,4.759,0,0,0,1.008,2.76,1.679,1.679,0,0,0,1.355.611,2.035,2.035,0,0,0,1.721-1.061,2.634,2.634,0,0,0,.331-1.443,4.009,4.009,0,0,0-1.234-2.7l-2.92-2.766a12.477,12.477,0,0,1-2.312-2.836,6.558,6.558,0,0,1-.729-3.061,5.324,5.324,0,0,1,2-4.506,4.967,4.967,0,0,1,3.059-.922,5.56,5.56,0,0,1,3.007.782,4.514,4.514,0,0,1,1.573,1.7,6.31,6.31,0,0,1,.722,2.52l-3.146.574a3.8,3.8,0,0,0-.765-2.085,1.606,1.606,0,0,0-1.3-.539,1.5,1.5,0,0,0-1.373.8,3.083,3.083,0,0,0-.382,1.6,4.792,4.792,0,0,0,1.286,3.041,10.8,10.8,0,0,0,1.459,1.39q1.148.957,1.513,1.339a11.175,11.175,0,0,1,1.877,2.4,9.208,9.208,0,0,1,.5,1.026,5.973,5.973,0,0,1,.487,2.085" transform="translate(-310.969 -24.935)" fill="#44b2e5"/>
    <path id="Path_33108" data-name="Path 33108" d="M140.979,51.512V60.74h-3.285V38.964h3.285v9.246h3.962V38.964h3.285V60.74h-3.285V51.512Z" transform="translate(-89.967 -25.458)" fill="#fff"/>
    <path id="Path_33109" data-name="Path 33109" d="M181.648,38.161a5.208,5.208,0,0,1,5.214,5.214V55.263a5.205,5.205,0,1,1-10.411,0V43.375a5.207,5.207,0,0,1,5.2-5.214m1.791,5.144a1.87,1.87,0,0,0-1.877-1.877,1.838,1.838,0,0,0-1.338.548,1.794,1.794,0,0,0-.557,1.329V55.228a1.8,1.8,0,0,0,.557,1.33,1.837,1.837,0,0,0,1.338.548,1.87,1.87,0,0,0,1.877-1.877Z" transform="translate(-115.291 -24.934)" fill="#fff"/>
    <path id="Path_33110" data-name="Path 33110" d="M218.093,60.708h-3.285V38.915h4.714l3.061,15.655,2.938-15.655h4.529V60.708h-3.285v-13.7l-2.85,13.7h-2.642l-3.181-13.66Z" transform="translate(-140.353 -25.426)" fill="#fff"/>
    <path id="Path_33111" data-name="Path 33111" d="M267.255,60.708V38.915h9.35v3.3H270.54V48.16h4.432v3.3H270.54v5.944h6.065v3.3Z" transform="translate(-174.621 -25.426)" fill="#fff"/>
    <path id="Path_33112" data-name="Path 33112" d="M57.046,33.623H60.59V2.5H57.046v22.21H42.135V0H38.591V42.174h3.544V28.256H57.046Z" transform="translate(-25.215 0)" fill="#44b2e5"/>
    <path id="Path_33113" data-name="Path 33113" d="M22.76,40.767l-2.668,2.44h0V62.246h3.544V44.769l2.454-2.224v-4.8l-3.329,3.026Z" transform="translate(-13.128 -24.659)" fill="#fff"/>
    <path id="Path_33114" data-name="Path 33114" d="M64.083,18.375v-4.8L58.6,8.56,57.186,7.265,55.769,8.56l-5.738,5.254v4.8l7.155-6.552Z" transform="translate(-32.689 -4.747)" fill="#fff"/>
    <path id="Path_33115" data-name="Path 33115" d="M77.3,40.365h0l-3.543-3.239v4.8l2.668,2.44V58.3H58.075v3.544h21.9V42.806h0Z" transform="translate(-37.945 -24.258)" fill="#fff"/>
    <path id="Path_33116" data-name="Path 33116" d="M10.3,50.86H3.942V16.045H10.3V12.1H0V54.8H28.751V50.86H10.3Z" transform="translate(0 -7.909)" fill="#fff"/>
    <path id="Path_33117" data-name="Path 33117" d="M390.343,126.2a2.188,2.188,0,0,0-1.47-.415h-2.181v3.166h2.049a2.552,2.552,0,0,0,1.59-.39,1.435,1.435,0,0,0,.486-1.19,1.476,1.476,0,0,0-.472-1.171" transform="translate(-252.659 -82.184)" fill="#fff"/>
    <path id="Path_33118" data-name="Path 33118" d="M322.359,126.2a2.188,2.188,0,0,0-1.47-.415h-2.181v3.166h2.049a2.551,2.551,0,0,0,1.59-.39,1.435,1.435,0,0,0,.486-1.19,1.476,1.476,0,0,0-.472-1.171" transform="translate(-208.239 -82.184)" fill="#fff"/>
    <path id="Path_33119" data-name="Path 33119" d="M359.8,125.515a2.271,2.271,0,0,0-1.814.789,2.99,2.99,0,0,0-.677,2.02v1.608a3.008,3.008,0,0,0,.677,2.032,2.271,2.271,0,0,0,1.814.789,2.461,2.461,0,0,0,1.92-.785,2.917,2.917,0,0,0,.711-2.035v-1.608a2.9,2.9,0,0,0-.714-2.02,2.458,2.458,0,0,0-1.917-.789" transform="translate(-233.463 -82.01)" fill="#fff"/>
    <path id="Path_33120" data-name="Path 33120" d="M430.649,119.689a1.025,1.025,0,1,0,1.022,1.022,1.02,1.02,0,0,0-1.022-1.022m.324,1.7-.352-.536h-.245v.536H430.2v-1.357h.552a.409.409,0,0,1,.43.413.4.4,0,0,1-.346.4l.363.541Z" transform="translate(-280.709 -78.203)" fill="#fff"/>
    <path id="Path_33121" data-name="Path 33121" d="M111.5,12.1v3.941h141.3V50.86H225.07V46.9H144.115V50.86H111.443V54.8h32.672v8.354H225.07V54.8h31.666V12.1ZM154,59.513h-6.384V50.545h6.311V51.5h-5.01v2.9h4.408v.955h-4.408v3.2H154Zm7.48,0-2.306-3.56-2.313,3.56h-1.573l3.12-4.521-3.053-4.447h1.56l2.234,3.5,2.247-3.5h1.573l-3.054,4.447,3.12,4.521ZM171.628,51.5h-3.093v8.013h-1.3V51.5h-3.086v-.955h7.481Zm8.313,8.013h-6.384V50.545h6.311V51.5h-5.01v2.9h4.408v.955h-4.408v3.2h5.082Zm9.185,0h-1.341a.982.982,0,0,1-.331-.616,4.744,4.744,0,0,1-.073-.838V57.24a1.559,1.559,0,0,0-.456-1.17,1.678,1.678,0,0,0-1.223-.443h-2.419v3.887h-1.3V50.552h3.483a3.843,3.843,0,0,1,2.412.653,2.265,2.265,0,0,1,.833,1.9,1.938,1.938,0,0,1-.386,1.2,2.6,2.6,0,0,1-1.127.813,1.97,1.97,0,0,1,1.14.779,2.416,2.416,0,0,1,.347,1.333v.844a2.621,2.621,0,0,0,.1.751,1.117,1.117,0,0,0,.344.542Zm3.713,0h-1.309V50.545h1.309Zm10.249-3.683a3.682,3.682,0,0,1-1.094,2.729,3.859,3.859,0,0,1-2.839,1.084,3.65,3.65,0,0,1-2.739-1.084,3.756,3.756,0,0,1-1.054-2.729v-1.6a3.77,3.77,0,0,1,1.054-2.729,3.64,3.64,0,0,1,2.739-1.09,3.854,3.854,0,0,1,2.839,1.087,3.692,3.692,0,0,1,1.094,2.732Zm9.6,3.683h-1.341a.982.982,0,0,1-.331-.616,4.779,4.779,0,0,1-.073-.838V57.24a1.559,1.559,0,0,0-.456-1.17,1.679,1.679,0,0,0-1.223-.443h-2.419v3.887h-1.3V50.552h3.483a3.843,3.843,0,0,1,2.412.653,2.265,2.265,0,0,1,.833,1.9,1.938,1.938,0,0,1-.386,1.2,2.6,2.6,0,0,1-1.127.813,1.968,1.968,0,0,1,1.14.779,2.416,2.416,0,0,1,.347,1.333v.844a2.621,2.621,0,0,0,.1.751,1.114,1.114,0,0,0,.343.542Zm7.93-.53a4.278,4.278,0,0,1-2.485.659,4.524,4.524,0,0,1-2.548-.73,2.159,2.159,0,0,1-1.074-1.949l.013-.037h1.242a1.474,1.474,0,0,0,.681,1.312,2.99,2.99,0,0,0,1.685.449,2.764,2.764,0,0,0,1.559-.385,1.2,1.2,0,0,0,.575-1.047,1.284,1.284,0,0,0-.5-1.026,4.342,4.342,0,0,0-1.758-.7,6.02,6.02,0,0,1-2.382-1,2.018,2.018,0,0,1-.856-1.661,2.128,2.128,0,0,1,.922-1.753,3.827,3.827,0,0,1,2.389-.7,3.719,3.719,0,0,1,2.515.807,2.313,2.313,0,0,1,.9,1.872l-.013.037H220.25a1.61,1.61,0,0,0-.558-1.275,2.9,2.9,0,0,0-3.093-.077,1.3,1.3,0,0,0-.519,1.069,1.157,1.157,0,0,0,.562.976,5.557,5.557,0,0,0,1.824.687,5.372,5.372,0,0,1,2.313,1.035,2.149,2.149,0,0,1,.793,1.694,2.028,2.028,0,0,1-.952,1.743m2.135-7.384a1.184,1.184,0,1,1,1.184-1.184,1.184,1.184,0,0,1-1.184,1.184" transform="translate(-72.815 -7.909)" fill="#fff"/>
    <path id="Path_33122" data-name="Path 33122" d="M432.416,121.4a.244.244,0,0,0-.246-.257H431.8v.5h.374a.241.241,0,0,0,.246-.246" transform="translate(-282.129 -79.151)" fill="#fff"/>
  </g>
</svg>
